<svg xmlns="http://www.w3.org/2000/svg" xmlns:xlink="http://www.w3.org/1999/xlink" id="Layer_1" x="0" y="0" version="1.1" viewBox="0 0 110.7 110.7" xml:space="preserve" style="enable-background:new 0 0 110.7 110.7"><style type="text/css">.st0{fill:#ffa700}.st1{fill:#631ab3}</style><g><path d="M55.9,111C25.3,111,0.5,86.1,0.5,55.6c0-30.5,24.8-55.4,55.4-55.4c30.5,0,55.4,24.8,55.4,55.4 C111.3,86.1,86.4,111,55.9,111z M55.9,3.1C27,3.1,3.4,26.7,3.4,55.6C3.4,84.5,27,108,55.9,108c28.9,0,52.5-23.5,52.5-52.5 C108.3,26.7,84.8,3.1,55.9,3.1z" class="st0"/><path d="M55.3,80.2c-14.3,0-26-11.7-26-26s11.7-26,26-26s26,11.7,26,26S69.7,80.2,55.3,80.2z M55.3,31.9 C43,31.9,33,41.9,33,54.2s10,22.3,22.3,22.3s22.3-10,22.3-22.3S67.6,31.9,55.3,31.9z" class="st1"/><path d="M77.6,95.6c-0.6,0-1.2-0.3-1.6-0.9L65.3,76.4c-0.5-0.9-0.2-2,0.7-2.5s2-0.2,2.5,0.7l10.6,18.4 c0.5,0.9,0.2,2-0.7,2.5C78.2,95.6,77.9,95.6,77.6,95.6z" class="st1"/><path d="M56,70.5c-1.6,0-2.8-0.4-3.5-1.1c-0.8-0.7-1.1-2.1-1.1-4.1c0-0.7,0-1.2,0.1-1.7c0-0.5,0.1-1,0.1-1.5 c0-0.5,0.1-0.9,0.1-1.4c0-0.5,0.1-1,0.1-1.6c0-0.3-0.1-0.6-0.2-0.9c-0.1-0.3-0.3-0.6-0.5-0.9c-0.2-0.3-0.6-0.5-1-0.6 c-0.4-0.2-0.9-0.2-1.5-0.3v-3.1c0.6,0,1.1-0.1,1.5-0.3c0.4-0.2,0.7-0.4,1-0.6c0.2-0.3,0.4-0.5,0.5-0.9c0.1-0.3,0.2-0.6,0.2-0.9 c0-0.6,0-1.1-0.1-1.6c0-0.5-0.1-0.9-0.1-1.4c0-0.5-0.1-1-0.1-1.5c0-0.5-0.1-1.1-0.1-1.7c0-2,0.4-3.3,1.1-4.1 c0.8-0.7,1.9-1.1,3.5-1.1h2.3V42h-0.7c-0.8,0-1.3,0.2-1.5,0.5c-0.3,0.4-0.4,1-0.4,2c0,1,0,2,0.1,2.9c0,0.9,0.1,1.9,0.1,3.1 c0,1.4-0.2,2.4-0.7,3c-0.4,0.6-1.1,1-2,1.3v0.1c0.9,0.2,1.6,0.6,2,1.3c0.4,0.6,0.7,1.6,0.7,3c0,1.1,0,2.1-0.1,3.1 c0,0.9-0.1,1.9-0.1,2.9c0,1,0.1,1.7,0.4,2c0.3,0.4,0.8,0.5,1.5,0.5h0.7v2.8H56z" class="st1"/></g></svg>