<svg xmlns="http://www.w3.org/2000/svg" xmlns:xlink="http://www.w3.org/1999/xlink" id="Layer_1" x="0" y="0" version="1.1" viewBox="0 0 154.14 138.32" xml:space="preserve" style="enable-background:new 0 0 154.14 138.32"><style type="text/css">.st0{fill:#ffa700}.st1{fill:#fff;stroke:#631ab3;stroke-width:3;stroke-linecap:round;stroke-linejoin:round;stroke-miterlimit:10}</style><g><polygon points="82.58 19.47 95.34 28.59 95.34 14" class="st0"/><polyline points="56.5 133.5 80.75 66.97 89.96 79.25 96.57 54.2 124.5 114.5" class="st1"/><line x1="96.1" x2="96.1" y1="16.3" y2="54.68" class="st1"/><path d="M76.84,138.31c-38.08,0-69.16-30.96-69.16-69.16c0-38.08,30.96-69.16,69.16-69.16 c38.08,0,69.16,30.96,69.16,69.16C146,107.35,114.92,138.31,76.84,138.31z M76.84,3.74c-36.08,0-65.42,29.34-65.42,65.54 c0,36.08,29.34,65.54,65.54,65.54c36.08,0,65.54-29.34,65.54-65.54C142.38,33.07,112.92,3.74,76.84,3.74z" class="st0"/></g></svg>