<svg xmlns="http://www.w3.org/2000/svg" xmlns:xlink="http://www.w3.org/1999/xlink" id="Layer_1" x="0" y="0" version="1.1" viewBox="0 0 138.32 138.32" xml:space="preserve" style="enable-background:new 0 0 138.32 138.32"><style type="text/css">.st0{fill:#fff}.st1{fill:#631ab3}.st2{fill:#ffa700}</style><g><g><ellipse cx="67.83" cy="56.98" class="st0" rx="11.98" ry="11.98" transform="matrix(0.3827 -0.9239 0.9239 0.3827 -10.7708 97.8456)"/><path d="M67.83,70.46c-7.43,0-13.48-6.05-13.48-13.48c0-7.43,6.05-13.48,13.48-13.48s13.48,6.05,13.48,13.48 C81.32,64.42,75.27,70.46,67.83,70.46z M67.83,46.5c-5.78,0-10.48,4.7-10.48,10.48s4.7,10.48,10.48,10.48 c5.78,0,10.48-4.7,10.48-10.48S73.61,46.5,67.83,46.5z" class="st1"/></g><g><path d="M67.83,76.01L67.83,76.01c-6.62,0-11.98,5.36-11.98,11.98v47.5c4.23,0.86,8.62,1.32,13.1,1.32 c3.7,0,7.33-0.32,10.86-0.92V88C79.82,81.38,74.45,76.01,67.83,76.01z" class="st0"/><path d="M68.95,138.32c-4.5,0-9.01-0.45-13.4-1.35c-0.7-0.14-1.2-0.76-1.2-1.47V88c0-7.43,6.05-13.48,13.48-13.48 S81.32,80.56,81.32,88v47.9c0,0.73-0.53,1.36-1.25,1.48C76.35,138,72.61,138.32,68.95,138.32z M79.82,135.9L79.82,135.9 L79.82,135.9z M57.35,134.26c6.83,1.25,13.86,1.41,20.97,0.35V88c0-5.78-4.7-10.48-10.48-10.48c-5.78,0-10.48,4.7-10.48,10.48 V134.26z" class="st1"/></g><g><circle cx="37.22" cy="61.51" r="9.71" class="st0"/><path d="M37.22,72.72c-6.18,0-11.21-5.03-11.21-11.21c0-6.18,5.03-11.21,11.21-11.21c6.18,0,11.21,5.03,11.21,11.21 C48.43,67.69,43.4,72.72,37.22,72.72z M37.22,53.3c-4.53,0-8.21,3.68-8.21,8.21c0,4.53,3.68,8.21,8.21,8.21 c4.52,0,8.21-3.68,8.21-8.21C45.43,56.99,41.75,53.3,37.22,53.3z" class="st1"/></g><g><path d="M46.93,86.63c0-5.36-4.35-9.71-9.71-9.71h0c-5.36,0-9.71,4.35-9.71,9.71v35.38 c5.74,4.7,12.29,8.44,19.41,10.99V86.63z" class="st0"/><path d="M46.93,134.5c-0.17,0-0.34-0.03-0.51-0.09c-7.22-2.58-13.9-6.37-19.86-11.24c-0.35-0.29-0.55-0.71-0.55-1.16 V86.63c0-6.18,5.03-11.21,11.21-11.21c6.18,0,11.21,5.03,11.21,11.21V133c0,0.49-0.24,0.95-0.64,1.23 C47.53,134.41,47.23,134.5,46.93,134.5z M29.01,121.3c4.99,3.99,10.5,7.2,16.41,9.54v-44.2c0-4.52-3.68-8.21-8.21-8.21 c-4.53,0-8.21,3.68-8.21,8.21V121.3z" class="st1"/></g><g><circle cx="97.59" cy="68.18" r="9.71" class="st0"/><path d="M97.59,79.39c-6.18,0-11.21-5.03-11.21-11.21c0-6.18,5.03-11.21,11.21-11.21c6.18,0,11.21,5.03,11.21,11.21 C108.8,74.36,103.77,79.39,97.59,79.39z M97.59,59.97c-4.52,0-8.21,3.68-8.21,8.21c0,4.52,3.68,8.21,8.21,8.21 c4.53,0,8.21-3.68,8.21-8.21C105.8,63.66,102.12,59.97,97.59,59.97z" class="st1"/></g><g><path d="M96.39,83.6L96.39,83.6c-4.69,0-8.5,3.81-8.5,8.5v41.27c7.09-2.4,13.64-4.97,19.41-9.5V94.51 C107.3,88.48,102.42,83.6,96.39,83.6z" class="st0"/><path d="M87.89,134.87c-0.31,0-0.62-0.1-0.87-0.28c-0.39-0.28-0.63-0.74-0.63-1.22V92.1c0-5.51,4.49-10,10-10 c6.84,0,12.41,5.57,12.41,12.41v29.36c0,0.46-0.21,0.9-0.58,1.18c-6.26,4.91-13.53,7.6-19.86,9.74 C88.21,134.84,88.05,134.87,87.89,134.87z M96.39,85.1c-3.86,0-7,3.14-7,7v39.17c6.54-2.29,11.71-4.58,16.41-8.13V94.51 C105.8,89.32,101.58,85.1,96.39,85.1z M107.3,123.87L107.3,123.87L107.3,123.87z" class="st1"/></g><path d="M68.83,138.31c-38.08,0-69.16-30.96-69.16-69.16c0-38.08,30.96-69.16,69.16-69.16 c38.08,0,69.16,30.96,69.16,69.16S106.9,138.31,68.83,138.31z M68.83,3.74c-36.08,0-65.42,29.34-65.42,65.54 c0,36.08,29.34,65.54,65.54,65.54c36.08,0,65.54-29.34,65.54-65.54C134.37,33.07,104.91,3.74,68.83,3.74z" class="st2"/></g></svg>