<svg xmlns="http://www.w3.org/2000/svg" xmlns:xlink="http://www.w3.org/1999/xlink" id="Layer_1" x="0" y="0" version="1.1" viewBox="0 0 194 194" xml:space="preserve" style="enable-background:new 0 0 194 194"><style type="text/css">.st0{opacity:.2}.st1,.st2{fill:none;stroke-width:4;stroke-miterlimit:10}.st1{stroke:#fff;stroke-dasharray:5.969,5.969}.st2{stroke:#f69f0d}.st3{fill:#fff}</style><g><g transform="translate(-984 -1793) translate(984 1793)"><g class="st0"><circle cx="97" cy="97" r="95" class="st1"/></g><circle cx="97" cy="97" r="73.9" class="st2"/></g></g><g id="surface1"><path d="M97,64.3c-18.6,0-33.7,15.1-33.7,33.7c0,14.4,9.1,26.7,21.8,31.6c0.8,0.3,1.6-0.1,1.9-0.9l7.3-19.2 c0.1-0.4,0.1-0.8,0-1.1c-0.2-0.4-0.5-0.6-0.8-0.8c-3.9-1.5-6.6-5.2-6.6-9.6c0-5.7,4.6-10.3,10.3-10.3s10.3,4.6,10.3,10.3 c0,4.4-2.8,8.1-6.6,9.6c-0.4,0.1-0.7,0.4-0.8,0.8c-0.2,0.4-0.2,0.8,0,1.1l7.3,19.2c0.3,0.8,1.1,1.1,1.9,0.9 c12.7-4.8,21.8-17.1,21.8-31.6C130.7,79.4,115.6,64.3,97,64.3z M97,67.3c17,0,30.8,13.8,30.8,30.8c0,12.6-7.7,23.3-18.6,28.1 l-6.2-16.4c4.3-2.2,7.2-6.5,7.2-11.6c0-7.3-5.9-13.2-13.2-13.2S83.8,90.8,83.8,98c0,5.1,3,9.4,7.2,11.6l-6.2,16.4 c-10.9-4.7-18.6-15.4-18.6-28.1C66.2,81,80,67.3,97,67.3z" class="st3"/></g></svg>