<svg xmlns="http://www.w3.org/2000/svg" viewBox="0 0 304 125.523"><defs><style>.a,.b,.c{fill:none;stroke:#fff;stroke-miterlimit:10;stroke-width:4px}.a{stroke-dasharray:6;opacity:.2}.b{stroke-linecap:round;stroke-linejoin:round}</style></defs><rect width="300" height="121.523" class="a" transform="translate(2 2)"/><rect width="182.285" height="35.242" class="b" transform="translate(68.19 46.558)"/><path d="M120.228,77.314a5.914,5.914,0,1,1-5.914-5.914A5.947,5.947,0,0,1,120.228,77.314Z" class="c" transform="translate(-20.2 -13.175)"/><path d="M147.228,77.314a5.914,5.914,0,1,1-5.914-5.914A5.947,5.947,0,0,1,147.228,77.314Z" class="c" transform="translate(-25.325 -13.175)"/><path d="M234.314,83.228a5.914,5.914,0,0,1,0-11.828h35.728a5.914,5.914,0,1,1,0,11.828Z" class="c" transform="translate(-42.981 -13.175)"/></svg>