<svg xmlns="http://www.w3.org/2000/svg" xmlns:xlink="http://www.w3.org/1999/xlink" id="Layer_1" x="0" y="0" version="1.1" viewBox="0 0 194 194" xml:space="preserve" style="enable-background:new 0 0 194 194"><style type="text/css">.st0{opacity:.2}.st1,.st2{fill:none;stroke-width:4;stroke-miterlimit:10}.st1{stroke:#fff;stroke-dasharray:5.969,5.969}.st2{stroke:#f69f0d}.st3{fill:#631ab3}.st4{fill:none;stroke:#631ab3;stroke-width:3;stroke-linecap:square;stroke-linejoin:bevel;stroke-miterlimit:10;stroke-dasharray:2,8}</style><g><g transform="translate(-984 -1793) translate(984 1793)"><g class="st0"><circle cx="97" cy="97" r="95" class="st1"/></g><circle cx="97" cy="97" r="73.9" class="st2"/></g></g><path d="M114.5,38c-7.2,0-13,5.8-13,13s13,27,13,27s13-19.8,13-27S121.7,38,114.5,38z M114.5,60.2	c-5.1,0-9.2-4.1-9.2-9.2s4.1-9.2,9.2-9.2s9.2,4.1,9.2,9.2S119.6,60.2,114.5,60.2z" class="st3"/><path d="M46.5,133c0,0,2-31.5,34.5-31.5S113.5,84,113.5,84" class="st4"/></svg>